<svg width="12" height="11" viewBox="0 0 12 11" fill="none" xmlns="http://www.w3.org/2000/svg">
<path d="M2.2275 0.256667C2.29791 0.176172 2.38533 0.111548 2.48373 0.0672402C2.58212 0.0229325 2.68917 -6.96715e-06 2.7975 1.58729e-09H9.2025C9.31083 -6.96715e-06 9.41788 0.0229325 9.51627 0.0672402C9.61467 0.111548 9.70208 0.176172 9.7725 0.256667L11.7292 2.48893C11.904 2.68828 12 2.94214 12 3.20467V3.39167C12 3.75465 11.8841 4.10857 11.6684 4.40398C11.4526 4.69938 11.1479 4.92149 10.7968 5.03928C10.4456 5.15707 10.0656 5.16464 9.70985 5.06093C9.35409 4.95723 9.04036 4.74743 8.8125 4.46087C8.64611 4.67043 8.43287 4.83998 8.18913 4.95654C7.94538 5.0731 7.67759 5.13357 7.40625 5.13333C7.13491 5.13363 6.86709 5.07318 6.62334 4.95662C6.37958 4.84005 6.16636 4.67047 6 4.46087C5.83364 4.67047 5.62042 4.84005 5.37666 4.95662C5.13291 5.07318 4.86509 5.13363 4.59375 5.13333C4.32241 5.13363 4.05459 5.07318 3.81084 4.95662C3.56708 4.84005 3.35386 4.67047 3.1875 4.46087C2.95964 4.74743 2.64591 4.95723 2.29015 5.06093C1.93439 5.16464 1.55439 5.15707 1.20324 5.03928C0.852099 4.92149 0.547367 4.69938 0.331637 4.40398C0.115906 4.10857 -4.09489e-05 3.75465 1.08484e-08 3.39167V3.20467C9.45565e-06 2.94214 0.0960425 2.68828 0.27075 2.48893L2.22825 0.255933L2.2275 0.256667ZM3.5625 3.39167C3.5625 3.65909 3.67115 3.91557 3.86455 4.10467C4.05794 4.29377 4.32025 4.4 4.59375 4.4C4.86725 4.4 5.12956 4.29377 5.32295 4.10467C5.51635 3.91557 5.625 3.65909 5.625 3.39167C5.625 3.29442 5.66451 3.20116 5.73484 3.13239C5.80516 3.06363 5.90054 3.025 6 3.025C6.09946 3.025 6.19484 3.06363 6.26517 3.13239C6.33549 3.20116 6.375 3.29442 6.375 3.39167C6.375 3.65909 6.48365 3.91557 6.67705 4.10467C6.87044 4.29377 7.13275 4.4 7.40625 4.4C7.67975 4.4 7.94206 4.29377 8.13545 4.10467C8.32885 3.91557 8.4375 3.65909 8.4375 3.39167C8.4375 3.29442 8.47701 3.20116 8.54733 3.13239C8.61766 3.06363 8.71304 3.025 8.8125 3.025C8.91196 3.025 9.00734 3.06363 9.07767 3.13239C9.14799 3.20116 9.1875 3.29442 9.1875 3.39167C9.1875 3.65909 9.29615 3.91557 9.48955 4.10467C9.68294 4.29377 9.94525 4.4 10.2188 4.4C10.4923 4.4 10.7546 4.29377 10.948 4.10467C11.1414 3.91557 11.25 3.65909 11.25 3.39167V3.20467C11.25 3.11727 11.2181 3.03275 11.16 2.96633L9.2025 0.733333H2.7975L0.84 2.96633C0.78191 3.03275 0.749993 3.11727 0.75 3.20467V3.39167C0.75 3.65909 0.858649 3.91557 1.05205 4.10467C1.24544 4.29377 1.50775 4.4 1.78125 4.4C2.05475 4.4 2.31706 4.29377 2.51045 4.10467C2.70385 3.91557 2.8125 3.65909 2.8125 3.39167C2.8125 3.29442 2.85201 3.20116 2.92234 3.13239C2.99266 3.06363 3.08804 3.025 3.1875 3.025C3.28696 3.025 3.38234 3.06363 3.45266 3.13239C3.52299 3.20116 3.5625 3.29442 3.5625 3.39167ZM1.125 5.5C1.22446 5.5 1.31984 5.53863 1.39017 5.60739C1.46049 5.67616 1.5 5.76942 1.5 5.86667V10.2667H10.5V5.86667C10.5 5.76942 10.5395 5.67616 10.6098 5.60739C10.6802 5.53863 10.7755 5.5 10.875 5.5C10.9745 5.5 11.0698 5.53863 11.1402 5.60739C11.2105 5.67616 11.25 5.76942 11.25 5.86667V10.2667H11.625C11.7245 10.2667 11.8198 10.3053 11.8902 10.3741C11.9605 10.4428 12 10.5361 12 10.6333C12 10.7306 11.9605 10.8238 11.8902 10.8926C11.8198 10.9614 11.7245 11 11.625 11H0.375C0.275544 11 0.180161 10.9614 0.109835 10.8926C0.0395088 10.8238 1.08484e-08 10.7306 1.08484e-08 10.6333C1.08484e-08 10.5361 0.0395088 10.4428 0.109835 10.3741C0.180161 10.3053 0.275544 10.2667 0.375 10.2667H0.75V5.86667C0.75 5.76942 0.789509 5.67616 0.859835 5.60739C0.930161 5.53863 1.02554 5.5 1.125 5.5ZM2.625 5.86667C2.72446 5.86667 2.81984 5.9053 2.89016 5.97406C2.96049 6.04282 3 6.13609 3 6.23333V8.8H9V6.23333C9 6.13609 9.03951 6.04282 9.10983 5.97406C9.18016 5.9053 9.27554 5.86667 9.375 5.86667C9.47446 5.86667 9.56984 5.9053 9.64017 5.97406C9.71049 6.04282 9.75 6.13609 9.75 6.23333V8.8C9.75 8.99449 9.67098 9.18102 9.53033 9.31855C9.38968 9.45607 9.19891 9.53333 9 9.53333H3C2.80109 9.53333 2.61032 9.45607 2.46967 9.31855C2.32902 9.18102 2.25 8.99449 2.25 8.8V6.23333C2.25 6.13609 2.28951 6.04282 2.35984 5.97406C2.43016 5.9053 2.52554 5.86667 2.625 5.86667Z" fill="#A38864"/>
</svg>
