<svg width="12" height="12" viewBox="0 0 12 12" fill="none" xmlns="http://www.w3.org/2000/svg">
<path d="M1.09961 6.64941H0.599609C0.572201 6.64931 0.546705 6.63826 0.52832 6.62012C0.510001 6.60193 0.50005 6.5779 0.5 6.55371C0.5 6.52946 0.509954 6.50554 0.52832 6.4873C0.546717 6.46905 0.572107 6.45811 0.599609 6.45801H1.09961V2.38281C1.09966 1.96744 1.23893 1.56296 1.49512 1.2334C1.75133 0.903979 2.11074 0.667361 2.51758 0.561523C2.9247 0.455695 3.35595 0.487257 3.74316 0.650391C4.1306 0.813657 4.45203 1.09847 4.65723 1.46094L4.77539 1.66992L5.01172 1.70801C5.31659 1.75783 5.59294 1.91377 5.79199 2.14648C5.991 2.37923 6.09959 2.67434 6.09961 2.97852V3.66992H3.5V2.97852C3.5 2.5353 3.72658 2.14243 4.0752 1.91016L4.61621 1.5498L4.12891 1.11914C3.88404 0.902694 3.58191 0.761438 3.25879 0.711914C2.93553 0.662415 2.6044 0.706852 2.30566 0.839844C2.00696 0.972855 1.75283 1.18912 1.57422 1.46289C1.39566 1.73665 1.29995 2.05602 1.2998 2.38281V6.45801H11.4004C11.4279 6.45811 11.4533 6.46905 11.4717 6.4873C11.49 6.50554 11.5 6.52946 11.5 6.55371C11.5 6.5779 11.49 6.60193 11.4717 6.62012C11.4533 6.63826 11.4278 6.64931 11.4004 6.64941H10.9004V7.74512C10.9003 8.38016 10.7017 9.00035 10.332 9.51953C9.96234 10.0386 9.43882 10.432 8.83398 10.6445L8.5 10.7617V11.4043C8.49998 11.4285 8.49003 11.4525 8.47168 11.4707C8.45329 11.4889 8.42783 11.4999 8.40039 11.5C8.37275 11.5 8.34661 11.489 8.32812 11.4707C8.30977 11.4525 8.29982 11.4285 8.2998 11.4043V10.8193H3.7002V11.4043C3.70018 11.4285 3.69023 11.4525 3.67188 11.4707C3.65339 11.489 3.62725 11.5 3.59961 11.5C3.57217 11.4999 3.54671 11.4889 3.52832 11.4707C3.50997 11.4525 3.50002 11.4285 3.5 11.4043V10.7617L3.16602 10.6445C2.56118 10.432 2.03766 10.0386 1.66797 9.51953C1.29832 9.00035 1.09966 8.38016 1.09961 7.74512V6.64941Z" fill="#A38864" stroke="black"/>
</svg>
