<svg width="12" height="12" viewBox="0 0 12 12" fill="none" xmlns="http://www.w3.org/2000/svg">
<path d="M5.0922 1.21488C5.51326 1.28366 5.89601 1.49873 6.17218 1.82173C6.44835 2.14473 6.59997 2.55464 6.6 2.97834V4.16987H3V2.97834C3 2.35994 3.3168 1.81422 3.798 1.4937C3.62519 1.34091 3.41158 1.24099 3.18289 1.20598C2.95421 1.17096 2.7202 1.20234 2.50907 1.29633C2.29793 1.39033 2.11866 1.54293 1.99286 1.73576C1.86705 1.92859 1.80008 2.15342 1.8 2.38317V5.95776H11.4C11.5591 5.95776 11.7117 6.02053 11.8243 6.13225C11.9368 6.24398 12 6.39552 12 6.55352C12 6.71153 11.9368 6.86306 11.8243 6.97479C11.7117 7.08652 11.5591 7.14929 11.4 7.14929V7.74505C11.4 8.48433 11.1692 9.20543 10.7394 9.80909C10.3096 10.4127 9.7019 10.8693 9 11.1159V11.4042C9 11.5622 8.93679 11.7138 8.82426 11.8255C8.71174 11.9372 8.55913 12 8.4 12C8.24087 12 8.08826 11.9372 7.97574 11.8255C7.86321 11.7138 7.8 11.5622 7.8 11.4042V11.3196H4.2V11.4042C4.2 11.5622 4.13679 11.7138 4.02426 11.8255C3.91174 11.9372 3.75913 12 3.6 12C3.44087 12 3.28826 11.9372 3.17574 11.8255C3.06321 11.7138 3 11.5622 3 11.4042V11.1159C2.2981 10.8693 1.69043 10.4127 1.26063 9.80909C0.830834 9.20543 0.600033 8.48433 0.6 7.74505V7.14929C0.44087 7.14929 0.288258 7.08652 0.175736 6.97479C0.0632141 6.86306 0 6.71153 0 6.55352C0 6.39552 0.0632141 6.24398 0.175736 6.13225C0.288258 6.02053 0.44087 5.95776 0.6 5.95776V2.38317C0.599974 1.85621 0.775855 1.3441 1.10013 0.926954C1.42441 0.509804 1.87879 0.211143 2.39219 0.0776884C2.9056 -0.0557662 3.44908 -0.0164869 3.93761 0.189382C4.42614 0.395251 4.83218 0.755502 5.0922 1.21488Z" fill="#A38864"/>
</svg>
