<svg width="13" height="13" viewBox="0 0 13 13" fill="none" xmlns="http://www.w3.org/2000/svg">
<path d="M12.5 0.86V5.3H0.5V0.86C0.5 0.661178 0.661178 0.5 0.86 0.5H12.14C12.3388 0.5 12.5 0.661178 12.5 0.86Z" stroke="#A38864" stroke-linecap="round" stroke-linejoin="round"/>
<path d="M10.1001 2.8999H10.7001" stroke="#A38864" stroke-linecap="round" stroke-linejoin="round"/>
<path d="M0.5 5.30005L0.973814 6.85069C1.12801 7.35535 1.59376 7.70005 2.12143 7.70005H2.9" stroke="#A38864" stroke-linecap="round" stroke-linejoin="round"/>
<path d="M12.5001 5.30005L12.0263 6.85069C11.8721 7.35535 11.4064 7.70005 10.8787 7.70005H10.1001" stroke="#A38864" stroke-linecap="round" stroke-linejoin="round"/>
<path d="M4.9999 7.3999C4.9999 7.3999 4.9999 11.5999 2.8999 11.5999" stroke="#A38864" stroke-linecap="round" stroke-linejoin="round"/>
<path d="M8 7.3999C8 7.3999 8 11.5999 10.1 11.5999" stroke="#A38864" stroke-linecap="round" stroke-linejoin="round"/>
<path d="M6.5 7.3999V11.5999" stroke="#A38864" stroke-linecap="round" stroke-linejoin="round"/>
</svg>
