<svg width="8" height="17" viewBox="0 0 8 17" fill="none" xmlns="http://www.w3.org/2000/svg">
<path d="M7.30445 17C7.48124 17 7.65804 16.9314 7.79762 16.7843C8.06746 16.4999 8.06746 16.0293 7.79762 15.7449L1.73074 9.35184C1.28409 8.88118 1.28409 8.11637 1.73074 7.64571L7.79762 1.25263C8.06746 0.968277 8.06746 0.497621 7.79762 0.213266C7.52777 -0.0710887 7.08113 -0.0710887 6.81128 0.213266L0.744402 6.60634C0.269845 7.10642 0 7.78299 0 8.49877C0 9.21456 0.26054 9.89113 0.744402 10.3912L6.81128 16.7843C6.95086 16.9216 7.12765 17 7.30445 17Z" fill="#A38864"/>
</svg>
