<?xml version="1.0" encoding="UTF-8"?>
<svg id="Layer_1" data-name="Layer 1" xmlns="http://www.w3.org/2000/svg" viewBox="0 0 176.29 176.01">
  <defs>
    <style>
      .cls-1 {
        fill: #199b35;
      }
    </style>
  </defs>
  <path class="cls-1" d="M75.8,1.11c-6.7,1.3-13.7,3.8-23,8.1l-8.5,3.9-5.5-3c-4.8-2.5-20.1-7.6-20.1-6.7,0,.2,4.4,3.6,9.8,7.6,20.2,15.2,31,26.6,37.3,39.7,2.8,5.8,3.3,8.2,3.7,16.1.4,8.1.1,10.3-2.2,17-4.7,14.1-5.8,21-6.5,39.6l-.6,18-5.8-7.9c-6.9-9.2-17.6-30-21.3-41.4-1.5-4.4-2.9-8-3-7.8-.7.7,2.7,17.4,4.7,23.7,4.8,14.3,24.6,49.6,27.4,48.7.5-.2,1.3-5.5,1.7-12.1,1.2-18.5,2.7-23.5,14.3-46.7,5.1-10.3,17.2-27.9,30.5-44.4,12.3-15.3,16.4-21.1,20-28.4,6.3-12.7,6.4-12.3-3.2-16.9C110.4,1.11,90.4-1.79,75.8,1.11Z"/>
  <path class="cls-1" d="M8.3,15.51C-.3,43.11-2.6,86.41,3.2,109.71c5.6,21.9,18.9,40.4,38.1,52.8,6.5,4.2,17.8,9.1,22.7,9.8,3.3.5,3.6.4,2.8-1.2-.6-1-5.1-5-10-9-23.4-18.7-37.9-44.6-44.6-80.1-2.2-11.5-3.1-50.3-1.5-64,.6-5.6.9-10.4.7-10.6-.2-.3-1.6,3.4-3.1,8.1Z"/>
  <path class="cls-1" d="M137.7,18.41c0,6-3,19.4-5.8,25.9-4.7,11-11.9,22.7-23.8,38.7-26.1,35.2-33,47.9-34,62.7-.3,4.3-.2,10.2.3,13.2l.8,5.3,13.3-11.6c21.6-19.1,37.5-38.2,47.2-57,2.7-5.3,5-8.8,5-7.7,0,1.9-5.7,17-10,26.6-7.1,15.4-22.3,37.2-36.7,52.3l-8.8,9.2h6.7c10.9,0,28.2-4.3,32.3-8,1.1-1,3.3-2.2,4.8-2.5,4.4-1.1,16.7-9.7,21.7-15.1,19.4-21,26.9-41.2,25.4-67.9-1.3-22.8-10.6-42.9-27-58.4-4-3.8-8.2-7.4-9.3-8.1-1.9-1-2.1-.8-2.1,2.4Z"/>
</svg>