<svg width="170" height="77" viewBox="0 0 170 77" fill="none" xmlns="http://www.w3.org/2000/svg">
<path d="M101.265 18.4181V19.9087H102.856V26.1714H91.946V18.4181H88.4414V19.9087H90.1072V34.323H88.4414V35.8136H91.946V27.7872H102.856V34.323H101.265V35.8136H104.669V18.4158H101.265V18.4181Z" fill="black"/>
<path d="M116.922 18.4181H115.108L107.851 34.323H106.311V35.8136H109.069L111.13 31.2417H120.898L122.265 34.323H120.725V35.8136H124.876L116.922 18.4158V18.4181ZM111.804 29.7511L116.005 20.332L119.384 27.8873L120.229 29.7511H111.804Z" fill="black"/>
<path d="M145.495 18.5184V20.009H147.259V34.4233H138.659V20.009H137.094V34.4233H128.494V18.5184H124.914V20.009H126.653V35.9138H128.466V35.5406L128.491 35.5156V35.9138H149.068V18.5161H145.489L145.495 18.5184Z" fill="black"/>
<path d="M161.36 18.4181H159.546L152.289 34.323H150.748V35.8136H153.506L155.568 31.2417H165.335L166.703 34.323H165.162V35.8136H169.313L161.36 18.4158V18.4181ZM156.239 29.7511L160.44 20.332L163.82 27.8873L164.664 29.7511H156.239Z" fill="black"/>
<path d="M103.104 57.7736L97.5624 50.2684L103.725 41.8688H99.7744V43.3594H100.644L96.5179 48.9758L91.2747 41.8688H88.4414V43.3594H90.2551L95.3504 50.3184L88.7395 59.2665H92.8153V57.7759H91.946L96.445 51.6133L102.061 59.2688H104.82V57.7782H103.106L103.104 57.7736Z" fill="black"/>
<path d="M122.585 51.7837C121.963 51.0372 121.094 50.5411 119.949 50.2931C120.769 49.9699 121.415 49.4738 121.888 48.8025C122.359 48.1312 122.61 47.3119 122.61 46.3425C122.61 44.927 122.064 43.8073 120.994 43.0382C119.924 42.2667 118.434 41.8707 116.495 41.8707H107.299V43.3613H108.965V57.7756H107.299V59.2662H116.991C119.128 59.2662 120.769 58.8679 121.861 58.0737C122.953 57.2545 123.527 56.1098 123.527 54.6192C123.527 53.4768 123.204 52.5073 122.582 51.7859L122.585 51.7837ZM110.803 43.3841H116.37C117.762 43.3841 118.855 43.6572 119.626 44.2033C120.373 44.7245 120.769 45.5209 120.769 46.5405C120.769 47.56 120.37 48.3542 119.626 48.9004C118.855 49.4215 117.762 49.6969 116.37 49.6969H110.803V43.3841ZM120.496 56.9541C119.701 57.5002 118.507 57.7483 116.966 57.7483H110.803V51.2125H116.966C120.097 51.2125 121.688 52.3048 121.688 54.469C121.688 55.6114 121.29 56.4329 120.496 56.9541Z" fill="black"/>
<path d="M142.786 46.0442C142.014 44.6765 140.922 43.6342 139.529 42.8627C138.136 42.1163 136.596 41.7203 134.857 41.7203C133.118 41.7203 131.575 42.1186 130.185 42.8878C128.792 43.6592 127.7 44.7015 126.903 46.0442C126.109 47.3868 125.711 48.9024 125.711 50.5683C125.711 52.2341 126.109 53.7497 126.903 55.0923C127.698 56.435 128.792 57.5023 130.185 58.2738C131.578 59.0452 133.143 59.4162 134.857 59.4162C136.571 59.4162 138.136 59.043 139.529 58.2738C140.922 57.5273 142.014 56.46 142.786 55.1174C143.58 53.7497 144.003 52.2591 144.003 50.5705C144.003 48.882 143.58 47.3891 142.786 46.0464V46.0442ZM141.197 54.2685C140.576 55.3632 139.706 56.2325 138.587 56.8537C137.495 57.475 136.25 57.7731 134.859 57.7731C133.469 57.7731 132.249 57.475 131.132 56.8537C130.014 56.2325 129.143 55.3632 128.496 54.2685C127.85 53.1762 127.527 51.9314 127.527 50.566C127.527 49.2006 127.85 47.9808 128.496 46.8884C129.143 45.7711 130.012 44.9245 131.132 44.3033C132.249 43.682 133.494 43.3588 134.859 43.3588C136.225 43.3588 137.495 43.682 138.587 44.3033C139.704 44.9245 140.576 45.7688 141.197 46.8884C141.843 47.9831 142.141 49.2256 142.141 50.566C142.141 51.9064 141.843 53.1762 141.197 54.2685Z" fill="black"/>
<path d="M152.854 41.9429C150.642 41.9429 148.904 42.4641 147.636 43.5336C146.393 44.5782 145.747 46.0437 145.747 47.9075C145.747 49.2502 146.095 50.3926 146.792 51.337C147.463 52.2564 148.407 52.9027 149.625 53.326V54.5435C147.711 54.5935 146.12 56.009 145.797 57.8478H144.555V59.3384H147.338V58.5191C147.338 58.246 147.388 57.973 147.488 57.7249C147.488 57.6999 147.513 57.6748 147.513 57.6498C147.538 57.5997 147.538 57.5747 147.563 57.5497C147.613 57.4496 147.663 57.3517 147.711 57.2516C147.736 57.2265 147.761 57.2015 147.761 57.1765C148.184 56.5552 148.904 56.157 149.7 56.157H151.241V53.6969L151.464 53.747C151.912 53.7971 152.383 53.8221 152.856 53.8221H157.528V57.8478H155.963V59.3384H159.367V43.4335H161.058V41.9429H152.856H152.854ZM157.526 52.2564H152.904C151.188 52.2564 149.873 51.8582 148.954 51.114C148.059 50.3425 147.586 49.2752 147.586 47.9075C147.586 46.5398 148.059 45.4225 148.954 44.651C149.873 43.9046 151.191 43.5314 152.904 43.5314H157.526V52.2541V52.2564Z" fill="black"/>
<path d="M38.5519 40.615C37.3617 40.615 36.3945 39.6478 36.3945 38.4577C36.3945 37.2675 37.3617 36.3003 38.5519 36.3003C39.7421 36.3003 40.7093 37.2675 40.7093 38.4577C40.7093 39.6478 39.7421 40.615 38.5519 40.615ZM38.5519 37.4359C37.9898 37.4359 37.5324 37.8933 37.5324 38.4554C37.5324 39.0175 37.9898 39.4749 38.5519 39.4749C39.114 39.4749 39.5714 39.0175 39.5714 38.4554C39.5714 37.8933 39.114 37.4359 38.5519 37.4359Z" fill="black"/>
<path d="M38.37 77C37.3755 77 36.3833 76.6222 35.6255 75.8644L30.3595 70.5985C29.6268 69.8657 29.2217 68.8917 29.2217 67.854C29.2217 66.8163 29.6245 65.8422 30.3573 65.1095L37.6167 57.85L29.1534 49.3867L18.7353 59.8048C18.3825 60.1575 17.8113 60.1575 17.4586 59.8048C17.1059 59.4521 17.1059 58.8809 17.4586 58.5282L27.8767 48.11L19.1494 39.3827L11.89 46.6422C11.1572 47.3749 10.1832 47.78 9.14547 47.78C8.10775 47.78 7.13375 47.3772 6.40097 46.6422L1.13501 41.3762C-0.378335 39.8629 -0.378335 37.4006 1.13501 35.8872L6.40097 30.6212C7.13375 29.8885 8.10775 29.4834 9.14547 29.4834C10.1832 29.4834 11.1572 29.8862 11.89 30.6212L19.1494 37.8807L27.8767 29.1534L17.4586 18.7353C17.1059 18.3825 17.1059 17.8113 17.4586 17.4586C17.8113 17.1059 18.3825 17.1059 18.7353 17.4586L29.1534 27.8768L37.8807 19.1494L30.6212 11.89C29.1079 10.3766 29.1079 7.91431 30.6212 6.40097L35.8872 1.13501C37.4006 -0.378335 39.8629 -0.378335 41.3762 1.13501L46.6422 6.40097C48.1555 7.91431 48.1555 10.3766 46.6422 11.89L39.3827 19.1494L48.11 27.8768L58.5281 17.4586C58.8809 17.1059 59.4521 17.1059 59.8048 17.4586C60.1575 17.8113 60.1575 18.3825 59.8048 18.7353L49.3867 29.1534L57.85 37.6167L65.1095 30.3573C66.6228 28.8439 69.0851 28.8439 70.5985 30.3573L75.8644 35.6232C77.3778 37.1366 77.3778 39.5989 75.8644 41.1122L70.5985 46.3759C69.8657 47.1087 68.8917 47.5138 67.854 47.5138C66.8162 47.5138 65.8422 47.111 65.1095 46.3759L57.85 39.1164L49.1227 47.8437L59.5408 58.2619C59.8936 58.6146 59.8936 59.1858 59.5408 59.5386C59.1881 59.8913 58.6169 59.8913 58.2642 59.5386L47.846 49.1204L39.1187 57.8477L46.3782 65.1072C47.111 65.84 47.516 66.814 47.516 67.8517C47.516 68.8894 47.1132 69.8634 46.3782 70.5962L41.1122 75.8622C40.3567 76.6177 39.3622 76.9977 38.3677 76.9977L38.37 77ZM38.37 59.6546L31.6362 66.3861C31.2448 66.7776 31.0286 67.2987 31.0286 67.854C31.0286 68.4092 31.2448 68.9304 31.6362 69.3218L36.9022 74.5878C37.7123 75.3956 39.0277 75.3979 39.8378 74.5878L45.1038 69.3218C45.4952 68.9304 45.7114 68.4092 45.7114 67.854C45.7114 67.2987 45.4952 66.7776 45.1038 66.3861L38.3723 59.6546H38.37ZM20.9563 38.634L38.37 56.0476L56.0476 38.37L38.634 20.9563L20.9563 38.634ZM9.15002 31.2949C8.59475 31.2949 8.07361 31.511 7.68219 31.9025L2.41622 37.1684C1.60608 37.9786 1.60608 39.2939 2.41622 40.1041L7.68219 45.3701C8.07361 45.7615 8.59475 45.9777 9.15002 45.9777C9.70529 45.9777 10.2264 45.7615 10.6178 45.3701L17.3494 38.6363L10.6156 31.9047C10.2241 31.5133 9.70301 31.2971 9.14774 31.2971L9.15002 31.2949ZM59.6546 38.37L66.3884 45.1015C66.7798 45.4929 67.301 45.7091 67.8562 45.7091C68.4115 45.7091 68.9326 45.4929 69.3241 45.1015L74.59 39.8378C75.4002 39.0277 75.4002 37.7123 74.59 36.9022L69.3241 31.6362C68.5139 30.8261 67.1986 30.8261 66.3884 31.6362L59.6546 38.37ZM38.634 1.81089C38.1015 1.81089 37.5712 2.01343 37.1662 2.4185L31.9002 7.68447C31.09 8.49462 31.09 9.80997 31.9002 10.6201L38.6317 17.3516L45.3632 10.6201C46.1734 9.80997 46.1734 8.49462 45.3632 7.68447L40.0973 2.4185C39.6922 2.01343 39.1619 1.81089 38.6294 1.81089H38.634Z" fill="black"/>
</svg>
