<?xml version="1.0" standalone="no"?>
<!DOCTYPE svg PUBLIC "-//W3C//DTD SVG 20010904//EN"
 "http://www.w3.org/TR/2001/REC-SVG-20010904/DTD/svg10.dtd">
<svg version="1.0" xmlns="http://www.w3.org/2000/svg"
 width="200.000000pt" height="200.000000pt" viewBox="0 0 200.000000 200.000000"
 preserveAspectRatio="xMidYMid meet">

<g transform="translate(0.000000,200.000000) scale(0.100000,-0.100000)"
fill="#000000" stroke="none">
<path d="M881 1869 c-67 -13 -137 -38 -230 -81 l-85 -39 -55 30 c-48 25 -201
76 -201 67 0 -2 44 -36 98 -76 202 -152 310 -266 373 -397 28 -58 33 -82 37
-161 4 -81 1 -103 -22 -170 -47 -141 -58 -210 -65 -396 l-6 -180 -58 79 c-69
92 -176 300 -213 414 -15 44 -29 80 -30 78 -7 -7 27 -174 47 -237 48 -143 246
-496 274 -487 5 2 13 55 17 121 12 185 27 235 143 467 51 103 172 279 305 444
123 153 164 211 200 284 63 127 64 123 -32 169 -151 71 -351 100 -497 71z"/>
<path d="M206 1725 c-86 -276 -109 -709 -51 -942 56 -219 189 -404 381 -528
65 -42 178 -91 227 -98 33 -5 36 -4 28 12 -6 10 -51 50 -100 90 -234 187 -379
446 -446 801 -22 115 -31 503 -15 640 6 56 9 104 7 106 -2 3 -16 -34 -31 -81z"/>
<path d="M1500 1696 c0 -60 -30 -194 -58 -259 -47 -110 -119 -227 -238 -387
-261 -352 -330 -479 -340 -627 -3 -43 -2 -102 3 -132 l8 -53 133 116 c216 191
375 382 472 570 27 53 50 88 50 77 0 -19 -57 -170 -100 -266 -71 -154 -223
-372 -367 -523 l-88 -92 67 0 c109 0 282 43 323 80 11 10 33 22 48 25 44 11
167 97 217 151 194 210 269 412 254 679 -13 228 -106 429 -270 584 -40 38 -82
74 -93 81 -19 10 -21 8 -21 -24z"/>
</g>
</svg>
