<svg width="12" height="10" viewBox="0 0 12 10" fill="none" xmlns="http://www.w3.org/2000/svg">
<path d="M0 5.26786C0 5.82014 0.447715 6.26786 1 6.26786H1.82353C2.37581 6.26786 2.82353 5.82014 2.82353 5.26786V4.48214C2.82353 3.92986 2.37581 3.48214 1.82353 3.48214H0.999999C0.447715 3.48214 0 3.92986 0 4.48214V5.26786ZM0 8.75C0 9.30229 0.447715 9.75 1 9.75H1.82353C2.37581 9.75 2.82353 9.30229 2.82353 8.75V7.96429C2.82353 7.412 2.37581 6.96429 1.82353 6.96429H0.999999C0.447715 6.96429 0 7.412 0 7.96429V8.75ZM0 1.78571C0 2.338 0.447715 2.78571 1 2.78571H1.82353C2.37581 2.78571 2.82353 2.338 2.82353 1.78571V1C2.82353 0.447716 2.37581 0 1.82353 0H0.999999C0.447715 0 0 0.447715 0 1V1.78571ZM3.52941 5.26786C3.52941 5.82014 3.97713 6.26786 4.52941 6.26786H11C11.5523 6.26786 12 5.82014 12 5.26786V4.48214C12 3.92986 11.5523 3.48214 11 3.48214H4.52941C3.97713 3.48214 3.52941 3.92986 3.52941 4.48214V5.26786ZM3.52941 8.75C3.52941 9.30229 3.97713 9.75 4.52941 9.75H11C11.5523 9.75 12 9.30229 12 8.75V7.96429C12 7.412 11.5523 6.96429 11 6.96429H4.52941C3.97713 6.96429 3.52941 7.412 3.52941 7.96429V8.75ZM4.52941 0C3.97713 0 3.52941 0.447715 3.52941 1V1.78571C3.52941 2.338 3.97713 2.78571 4.52941 2.78571H11C11.5523 2.78571 12 2.338 12 1.78571V1C12 0.447716 11.5523 0 11 0H4.52941Z" fill="#A38864"/>
</svg>
