<svg width="12" height="12" viewBox="0 0 12 12" fill="none" xmlns="http://www.w3.org/2000/svg">
<path d="M9.21422 6H8.78564V7.28571H9.21422V6Z" fill="#A38864"/>
<path d="M2.14307 7.28571H5.61449L4.32878 6H2.14307V7.28571Z" fill="#A38864"/>
<path d="M8.90625 0.752679C8.89697 0.74792 8.88803 0.742551 8.87946 0.736607C8.58422 0.578373 8.27594 0.445745 7.95804 0.340179L7.81339 0.291964C7.22758 0.101817 6.61589 0.00333391 6 0C2.68661 0 1.98291e-07 2.68661 1.98291e-07 6C-0.000275186 7.07062 0.286292 8.12176 0.8299 9.0441C1.37351 9.96644 2.1543 10.7263 3.09107 11.2446C3.10179 11.25 3.10982 11.258 3.12054 11.2634C3.41578 11.4216 3.72406 11.5543 4.04196 11.6598L4.18661 11.708C4.77237 11.8984 5.38409 11.9969 6 12C9.31339 12 12 9.31339 12 6C12.0003 4.92869 11.7135 3.87686 11.1694 2.95401C10.6253 2.03115 9.84383 1.271 8.90625 0.752679ZM6 10.5643C5.75577 10.5634 5.51204 10.5419 5.27143 10.5C5.0118 10.457 4.75638 10.3916 4.50804 10.3045C4.45714 10.2884 4.40625 10.2723 4.35804 10.2536C4.18363 10.1878 4.01364 10.1108 3.84911 10.0232C3.11982 9.63379 2.51005 9.05353 2.08497 8.34443C1.65989 7.63534 1.43548 6.82407 1.43571 5.99732C1.43571 5.00089 1.76786 4.08482 2.31161 3.33482L8.66518 9.68839C7.9125 10.2321 6.99643 10.5643 6 10.5643ZM9.69107 8.6625L3.3375 2.30893C4.0875 1.76786 5.00089 1.43571 6 1.43571C6.24423 1.4367 6.48794 1.45821 6.72857 1.5C6.9882 1.54301 7.24362 1.60844 7.49196 1.69554C7.54018 1.71161 7.59107 1.72768 7.64196 1.74643C7.80694 1.80888 7.96795 1.88134 8.12411 1.96339C8.86105 2.34974 9.47825 2.93036 9.90885 3.64236C10.3394 4.35436 10.567 5.1706 10.567 6.00268C10.5643 6.99911 10.2321 7.9125 9.69107 8.6625Z" fill="#A38864"/>
<path d="M8.57136 6H7.66064L8.57136 6.91071V6Z" fill="#A38864"/>
<path d="M9.85728 6H9.42871V7.28571H9.85728V6Z" fill="#A38864"/>
<path d="M8.78836 4.84023C8.55265 4.73041 8.19908 4.68756 7.56694 4.68756H7.47051C7.13033 4.69023 7.04461 4.68488 6.93479 4.52416C6.85979 4.41166 6.90801 4.12773 7.0339 3.93756C7.05536 3.90533 7.06769 3.86789 7.06958 3.82921C7.07147 3.79054 7.06284 3.75208 7.04461 3.71791C7.02613 3.68403 6.99909 3.65557 6.9662 3.63536C6.93331 3.61515 6.8957 3.60391 6.85711 3.60273C6.68887 3.59688 6.52295 3.56152 6.36694 3.49827C6.08301 3.37773 5.94908 3.17416 5.94908 2.87952C5.94908 2.18845 6.53301 2.13756 6.55979 2.13756V1.70898C6.23836 1.70898 5.52051 2.00363 5.52051 2.87952C5.52051 3.34827 5.76158 3.70988 6.2089 3.89738C6.31277 3.93955 6.42039 3.97184 6.53033 3.99381C6.44194 4.25631 6.4339 4.55363 6.57586 4.76256C6.81694 5.11881 7.11961 5.11613 7.46783 5.11345H7.56158C8.26604 5.11345 8.48836 5.17506 8.60354 5.22863C8.75622 5.29827 8.78569 5.42952 8.78033 5.64916V5.67595H9.2089V5.64916C9.2089 5.45898 9.21694 5.03845 8.78836 4.84023Z" fill="#A38864"/>
<path d="M9.85693 5.67847C9.85693 4.99008 9.77658 4.62847 9.61318 4.3499C9.38283 3.96419 9.01318 3.7499 8.57122 3.7499H8.10515C8.18283 3.52758 8.24979 3.21955 8.1989 2.92222C8.11318 2.41865 7.68729 2.11865 7.04443 2.11865V2.54722C7.60693 2.54722 7.74354 2.79097 7.77836 2.99455C7.84533 3.38294 7.59622 3.85437 7.59354 3.85972C7.57563 3.89221 7.56647 3.92879 7.56694 3.96588C7.56741 4.00297 7.5775 4.03931 7.59622 4.07133C7.61542 4.10319 7.64252 4.12955 7.6749 4.14785C7.70728 4.16615 7.74384 4.17578 7.78104 4.17579H8.57122C8.86318 4.17579 9.09086 4.30704 9.24354 4.56687C9.32658 4.70883 9.42836 4.92847 9.42836 5.67579H9.85693V5.67847Z" fill="#A38864"/>
</svg>
