<svg width="44" height="44" viewBox="0 0 44 44" fill="none" xmlns="http://www.w3.org/2000/svg">
<circle cx="22.0024" cy="22.0024" r="22.0024" fill="#A38864"/>
<path d="M28.8638 25.0742C29.4411 24.4969 29.5235 23.6723 29.0287 22.8476C28.6164 22.1879 27.8742 21.858 27.0495 22.0229C26.7197 22.1054 26.3898 22.2703 26.0599 22.5177C23.5035 24.2495 20.0399 24.167 17.4835 22.4353C17.3185 22.3528 17.1536 22.2703 16.9887 22.1879C16.0815 21.7755 15.1744 21.9405 14.6796 22.7651C14.1024 23.5898 14.1848 24.4969 14.927 25.2391C15.0919 25.404 15.2569 25.4865 15.3393 25.6514L15.4218 25.7339C16.5763 26.641 17.9783 27.2183 19.7925 27.4657L18.7205 28.5378C17.8133 29.4449 16.8237 30.4345 15.9166 31.3416C15.6692 31.589 15.3393 32.0013 15.3393 32.5786C15.3393 33.3208 15.7517 34.063 16.4939 34.3929C16.7413 34.5578 16.9887 34.5578 17.2361 34.5578C17.6484 34.5578 18.1432 34.3929 18.4731 33.9805C19.71 32.7435 20.6996 31.7539 21.6892 30.7644C21.7717 30.6819 21.7717 30.6819 21.7717 30.6819C21.7717 30.6819 21.8542 30.6819 21.8542 30.7644C22.5139 31.5065 23.2561 32.1663 23.9158 32.9085C24.2457 33.2383 24.5756 33.5682 24.9054 33.8981C25.3177 34.3104 25.6476 34.4753 26.1424 34.4753C26.8846 34.5578 27.7093 34.063 28.0391 33.3208C28.369 32.6611 28.2041 31.8364 27.6268 31.3416C26.8021 30.5169 25.9775 29.6098 25.0703 28.7852L23.6684 27.3832C24.4106 27.3008 25.2353 27.1358 25.9775 26.806C27.2145 26.3936 28.1216 25.8164 28.8638 25.0742Z" fill="white"/>
<path d="M21.7717 22.7651C25.3177 22.7651 28.2041 19.9613 28.2041 16.4152C28.2041 14.6834 27.5443 13.0341 26.3073 11.7971C25.0703 10.5601 23.5035 9.90039 21.8542 9.90039C18.3081 9.90039 15.5043 12.7867 15.4218 16.2503C15.4218 17.9821 16.0815 19.5489 17.3185 20.7859C18.4731 22.1054 20.0399 22.7651 21.7717 22.7651ZM19.9574 14.5185C20.4522 14.0237 21.112 13.7763 21.7717 13.7763C23.2561 13.7763 24.3282 14.9308 24.3282 16.3328C24.3282 17.8171 23.1736 18.8892 21.7717 18.8892C20.2873 18.8892 19.2153 17.7347 19.2153 16.3328C19.2153 15.673 19.4626 15.0133 19.9574 14.5185Z" fill="white"/>
<path d="M28.8638 25.0742C29.4411 24.4969 29.5235 23.6723 29.0287 22.8476C28.6164 22.1879 27.8742 21.858 27.0495 22.0229C26.7197 22.1054 26.3898 22.2703 26.0599 22.5177C23.5035 24.2495 20.0399 24.167 17.4835 22.4353C17.3185 22.3528 17.1536 22.2703 16.9887 22.1879C16.0815 21.7755 15.1744 21.9405 14.6796 22.7651C14.1024 23.5898 14.1848 24.4969 14.927 25.2391C15.0919 25.404 15.2569 25.4865 15.3393 25.6514L15.4218 25.7339C16.5763 26.641 17.9783 27.2183 19.7925 27.4657L18.7205 28.5378C17.8133 29.4449 16.8237 30.4345 15.9166 31.3416C15.6692 31.589 15.3393 32.0013 15.3393 32.5786C15.3393 33.3208 15.7517 34.063 16.4939 34.3929C16.7413 34.5578 16.9887 34.5578 17.2361 34.5578C17.6484 34.5578 18.1432 34.3929 18.4731 33.9805C19.71 32.7435 20.6996 31.7539 21.6892 30.7644C21.7717 30.6819 21.7717 30.6819 21.7717 30.6819C21.7717 30.6819 21.8542 30.6819 21.8542 30.7644C22.5139 31.5065 23.2561 32.1663 23.9158 32.9085C24.2457 33.2383 24.5756 33.5682 24.9054 33.8981C25.3177 34.3104 25.6476 34.4753 26.1424 34.4753C26.8846 34.5578 27.7093 34.063 28.0391 33.3208C28.369 32.6611 28.2041 31.8364 27.6268 31.3416C26.8021 30.5169 25.9775 29.6098 25.0703 28.7852L23.6684 27.3832C24.4106 27.3008 25.2353 27.1358 25.9775 26.806C27.2145 26.3936 28.1216 25.8164 28.8638 25.0742Z" fill="white"/>
</svg>
