<svg width="12" height="11" viewBox="0 0 12 11" fill="none" xmlns="http://www.w3.org/2000/svg">
<path d="M10.6133 0.694375C10.48 0.28875 10.1067 0 9.66667 0H2.33333C1.89333 0 1.52667 0.28875 1.38667 0.694375L0 4.8125V10.3125C0 10.6906 0.3 11 0.666667 11H1.33333C1.7 11 2 10.6906 2 10.3125V9.625H10V10.3125C10 10.6906 10.3 11 10.6667 11H11.3333C11.7 11 12 10.6906 12 10.3125V4.8125L10.6133 0.694375ZM2.33333 7.5625C1.78 7.5625 1.33333 7.10187 1.33333 6.53125C1.33333 5.96063 1.78 5.5 2.33333 5.5C2.88667 5.5 3.33333 5.96063 3.33333 6.53125C3.33333 7.10187 2.88667 7.5625 2.33333 7.5625ZM9.66667 7.5625C9.11333 7.5625 8.66667 7.10187 8.66667 6.53125C8.66667 5.96063 9.11333 5.5 9.66667 5.5C10.22 5.5 10.6667 5.96063 10.6667 6.53125C10.6667 7.10187 10.22 7.5625 9.66667 7.5625ZM1.33333 4.125L2.33333 1.03125H9.66667L10.6667 4.125H1.33333Z" fill="#A38864"/>
</svg>
