<svg width="8" height="17" viewBox="0 0 8 17" fill="none" xmlns="http://www.w3.org/2000/svg">
<path d="M0.695551 1.19979e-07C0.518755 1.19979e-07 0.34196 0.0686368 0.202384 0.215717C-0.0674615 0.500072 -0.0674615 0.970729 0.202384 1.25508L6.26926 7.64816C6.71591 8.11882 6.71591 8.88363 6.26926 9.35429L0.202384 15.7474C-0.0674615 16.0317 -0.0674615 16.5024 0.202384 16.7867C0.47223 17.0711 0.918871 17.0711 1.18872 16.7867L7.2556 10.3937C7.73015 9.89358 8 9.21701 8 8.50123C8 7.78544 7.73946 7.10887 7.2556 6.6088L1.18872 0.215717C1.04914 0.0784421 0.872346 1.19979e-07 0.695551 1.19979e-07Z" fill="#A38864"/>
</svg>
