<svg width="12" height="12" viewBox="0 0 12 12" fill="none" xmlns="http://www.w3.org/2000/svg">
<g clip-path="url(#clip0_6_266)">
<path d="M7.33333 7.06038C7.19496 7.20364 7.02944 7.31792 6.84643 7.39653C6.66343 7.47514 6.4666 7.51652 6.26743 7.51825C6.06826 7.51998 5.87074 7.48203 5.6864 7.40661C5.50205 7.33119 5.33457 7.21981 5.19373 7.07897C5.0529 6.93813 4.94152 6.77065 4.86609 6.58631C4.79067 6.40196 4.75272 6.20445 4.75445 6.00528C4.75618 5.80611 4.79756 5.60928 4.87617 5.42627C4.95479 5.24327 5.06906 5.07775 5.21233 4.93938C5.49523 4.66614 5.87413 4.51495 6.26743 4.51837C6.66072 4.52178 7.03694 4.67954 7.31505 4.95765C7.59317 5.23576 7.75092 5.61198 7.75434 6.00528C7.75776 6.39857 7.60656 6.77747 7.33333 7.06038Z" fill="#A38864"/>
<path d="M1.875 0C1.57663 0 1.29048 0.118526 1.0795 0.329505C0.868526 0.540483 0.75 0.826631 0.75 1.125V2.25H0.375C0.275544 2.25 0.180161 2.28951 0.109835 2.35984C0.0395088 2.43016 0 2.52554 0 2.625C0 2.72446 0.0395088 2.81984 0.109835 2.89016C0.180161 2.96049 0.275544 3 0.375 3H0.75V5.625H0.375C0.275544 5.625 0.180161 5.66451 0.109835 5.73484C0.0395088 5.80516 0 5.90054 0 6C0 6.09946 0.0395088 6.19484 0.109835 6.26517C0.180161 6.33549 0.275544 6.375 0.375 6.375H0.75V9H0.375C0.275544 9 0.180161 9.03951 0.109835 9.10983C0.0395088 9.18016 0 9.27554 0 9.375C0 9.47446 0.0395088 9.56984 0.109835 9.64017C0.180161 9.71049 0.275544 9.75 0.375 9.75H0.75V10.875C0.75 11.1734 0.868526 11.4595 1.0795 11.6705C1.29048 11.8815 1.57663 12 1.875 12H10.875C11.1734 12 11.4595 11.8815 11.6705 11.6705C11.8815 11.4595 12 11.1734 12 10.875V1.125C12 0.826631 11.8815 0.540483 11.6705 0.329505C11.4595 0.118526 11.1734 0 10.875 0L1.875 0ZM4.152 3.348L4.9695 4.1655C5.3504 3.89518 5.80592 3.74996 6.273 3.74996C6.74008 3.74996 7.1956 3.89518 7.5765 4.1655L8.394 3.348C8.46442 3.27768 8.55988 3.23822 8.65939 3.23829C8.7589 3.23836 8.85431 3.27796 8.92463 3.34837C8.99494 3.41879 9.0344 3.51425 9.03433 3.61377C9.03426 3.71328 8.99467 3.80868 8.92425 3.879L8.10675 4.6965C8.66175 5.47425 8.66175 6.5265 8.10675 7.3035L8.92425 8.121C8.99467 8.19132 9.03426 8.28672 9.03433 8.38623C9.0344 8.48575 8.99494 8.58121 8.92463 8.65162C8.85431 8.72204 8.7589 8.76164 8.65939 8.76171C8.55988 8.76178 8.46442 8.72232 8.394 8.652L7.5765 7.8345C7.19564 8.10493 6.7401 8.25021 6.273 8.25021C5.8059 8.25021 5.35036 8.10493 4.9695 7.8345L4.152 8.652C4.11713 8.68687 4.07574 8.71452 4.03019 8.73339C3.98463 8.75226 3.93581 8.76197 3.8865 8.76197C3.83719 8.76197 3.78837 8.75226 3.74281 8.73339C3.69726 8.71452 3.65587 8.68687 3.621 8.652C3.58613 8.61713 3.55848 8.57574 3.53961 8.53019C3.52074 8.48463 3.51103 8.43581 3.51103 8.3865C3.51103 8.33719 3.52074 8.28837 3.53961 8.24281C3.55848 8.19726 3.58613 8.15587 3.621 8.121L4.4385 7.3035C4.16818 6.9226 4.02296 6.46708 4.02296 6C4.02296 5.53292 4.16818 5.0774 4.4385 4.6965L3.621 3.879C3.55059 3.80858 3.51103 3.71308 3.51103 3.6135C3.51103 3.51392 3.55059 3.41842 3.621 3.348C3.69142 3.27759 3.78692 3.23803 3.8865 3.23803C3.98608 3.23803 4.08158 3.27759 4.152 3.348ZM10.5 4.875V7.125C10.5 7.22446 10.4605 7.31984 10.3902 7.39017C10.3198 7.46049 10.2245 7.5 10.125 7.5C10.0255 7.5 9.93016 7.46049 9.85983 7.39017C9.78951 7.31984 9.75 7.22446 9.75 7.125V4.875C9.75 4.77554 9.78951 4.68016 9.85983 4.60984C9.93016 4.53951 10.0255 4.5 10.125 4.5C10.2245 4.5 10.3198 4.53951 10.3902 4.60984C10.4605 4.68016 10.5 4.77554 10.5 4.875Z" fill="#A38864"/>
</g>
<defs>
<clipPath id="clip0_6_266">
<rect width="12" height="12" fill="white"/>
</clipPath>
</defs>
</svg>
