<svg width="44" height="44" viewBox="0 0 44 44" fill="none" xmlns="http://www.w3.org/2000/svg">
<circle cx="21.9366" cy="21.9366" r="21.9366" fill="#A38864"/>
<path d="M9.92177 21.5544L14.9651 23.429L16.9311 29.7346C17.0166 30.1607 17.5295 30.2459 17.8714 29.9902L20.6922 27.6896C20.9487 27.4339 21.3761 27.4339 21.718 27.6896L26.7613 31.3536C27.1032 31.6092 27.6161 31.4388 27.7016 31.0128L31.4627 13.1186C31.5482 12.6925 31.1208 12.2665 30.6934 12.4369L9.92177 20.4467C9.40889 20.6171 9.40889 21.384 9.92177 21.5544ZM16.6747 22.4917L26.5903 16.4418C26.7613 16.3566 26.9322 16.6122 26.7613 16.6974L18.6407 24.2812C18.3843 24.5368 18.1278 24.8776 18.1278 25.3037L17.8714 27.3487C17.8714 27.6044 17.444 27.6896 17.3585 27.3487L16.3327 23.5995C16.0763 23.1734 16.2473 22.6621 16.6747 22.4917Z" fill="white"/>
</svg>
