<svg width="44" height="44" viewBox="0 0 44 44" fill="none" xmlns="http://www.w3.org/2000/svg">
<circle cx="21.9366" cy="21.9366" r="21.9366" fill="#A38864"/>
<path d="M32.2148 28.1937C32.2148 28.1023 32.1237 28.1023 32.1237 28.0108C31.7594 27.2792 30.9398 26.3646 29.8469 25.3586C29.3004 24.9013 29.0272 24.5355 28.845 24.3525C28.5718 23.9867 28.5718 23.7124 28.6629 23.3465C28.754 23.0722 29.1183 22.6149 29.7558 21.7917C30.1201 21.3345 30.3022 21.0601 30.5755 20.7857C31.9416 18.9566 32.5791 17.7676 32.397 17.2189L32.3059 17.1275C32.2148 17.036 32.1237 16.9445 31.9416 16.9445C31.7594 16.8531 31.4862 16.8531 31.213 16.9445H27.7521C27.6611 16.9445 27.6611 16.9445 27.4789 16.9445C27.3878 16.9445 27.2968 16.9445 27.2968 16.9445H27.2057H27.1146L27.0235 17.036C26.9325 17.1275 26.9324 17.1275 26.9324 17.2189C26.5681 18.2249 26.1128 19.048 25.6574 19.9626C25.3842 20.4199 25.111 20.8772 24.8377 21.243C24.5645 21.6088 24.3823 21.8832 24.2002 22.0661C24.018 22.249 23.8359 22.3405 23.7448 22.5234C23.6537 22.6149 23.4716 22.7063 23.4716 22.6149C23.3805 22.6149 23.2894 22.6149 23.2894 22.5234C23.1984 22.432 23.1073 22.3405 23.0162 22.249C22.9252 22.1576 22.9251 21.9747 22.8341 21.7917C22.8341 21.6088 22.8341 21.4259 22.8341 21.3345C22.8341 21.243 22.8341 20.9686 22.8341 20.7857C22.8341 20.5114 22.8341 20.3284 22.8341 20.237C22.8341 19.9626 22.8341 19.5968 22.8341 19.231C22.8341 18.8651 22.8341 18.5908 22.8341 18.4078C22.8341 18.2249 22.8341 17.9506 22.8341 17.7677C22.8341 17.4933 22.8341 17.3104 22.8341 17.2189C22.8341 17.1275 22.743 16.9445 22.743 16.8531C22.6519 16.7616 22.5608 16.6702 22.4698 16.5787C22.3787 16.4873 22.1966 16.4873 22.1055 16.3958C21.6501 16.3043 21.1037 16.2129 20.4661 16.2129C19.0089 16.2129 18.0071 16.3044 17.6428 16.4873C17.4607 16.5787 17.2785 16.6702 17.1874 16.8531C17.0053 17.036 17.0053 17.1275 17.0963 17.1275C17.5517 17.2189 17.916 17.4018 18.0982 17.6762L18.1893 17.8591C18.2803 17.9506 18.2803 18.1335 18.3714 18.4078C18.4625 18.6822 18.4625 18.9566 18.4625 19.3224C18.4625 19.8712 18.4625 20.4199 18.4625 20.7857C18.4625 21.243 18.3714 21.5174 18.3714 21.7917C18.3714 22.0661 18.2803 22.249 18.1893 22.3405C18.0982 22.5234 18.0982 22.6149 18.0071 22.6149C18.0071 22.6149 18.0071 22.7063 17.916 22.7063C17.8249 22.7063 17.7339 22.7978 17.5517 22.7978C17.4606 22.7978 17.2785 22.7063 17.1874 22.6149C17.0053 22.5234 16.8231 22.3405 16.7321 22.1576C16.5499 21.9747 16.3677 21.7003 16.1856 21.3345C16.0034 20.9686 15.7302 20.6028 15.5481 20.0541L15.3659 19.6883C15.2748 19.5053 15.0927 19.1395 14.9105 18.6822C14.7284 18.2249 14.5462 17.8591 14.3641 17.4018C14.273 17.2189 14.182 17.1275 14.0909 17.036H13.9998C13.9998 17.036 13.9087 16.9445 13.8176 16.9445C13.7266 16.9445 13.6355 16.8531 13.5444 16.8531H10.2657C9.90141 16.8531 9.71927 16.9445 9.62819 17.036L9.53711 17.1275C9.53711 17.1275 9.53711 17.2189 9.53711 17.3104C9.53711 17.4018 9.53711 17.4933 9.62819 17.6762C10.0836 18.7737 10.63 19.8712 11.1765 20.9686C11.7229 21.9747 12.2694 22.8892 12.6337 23.5294C13.089 24.1696 13.4533 24.8098 13.9087 25.3586C14.3641 25.9073 14.6373 26.2731 14.7284 26.4561C14.9105 26.639 15.0016 26.7304 15.0927 26.8219L15.3659 27.0962C15.5481 27.2792 15.8213 27.5535 16.1856 27.8279C16.5499 28.1023 17.0053 28.3766 17.4606 28.651C17.916 28.9254 18.4625 29.1083 19.0089 29.2912C19.6465 29.4741 20.1929 29.5656 20.7394 29.4741H22.1055C22.3787 29.4741 22.5609 29.3827 22.743 29.1998L22.8341 29.1083C22.8341 29.0168 22.9251 29.0168 22.9251 28.9254C22.9251 28.8339 22.9251 28.7425 22.9251 28.5596C22.9251 28.1937 22.9252 27.9194 23.0162 27.645C23.1073 27.3706 23.1073 27.1877 23.1984 27.0048C23.2895 26.8219 23.3805 26.7304 23.4716 26.639C23.5627 26.5475 23.6538 26.4561 23.6538 26.4561H23.7448C23.927 26.3646 24.2002 26.4561 24.3824 26.639C24.6556 26.8219 24.9288 27.0963 25.1109 27.3706C25.2931 27.645 25.5663 27.9194 25.9306 28.2852C26.2949 28.651 26.5682 28.9254 26.7503 29.0168L27.0235 29.1998C27.2057 29.2912 27.3878 29.3827 27.6611 29.4741C27.9343 29.5656 28.1164 29.5656 28.2986 29.5656L31.3951 29.4741C31.6684 29.4741 31.9416 29.3827 32.1237 29.2912C32.3059 29.1998 32.397 29.1083 32.397 28.9254C32.397 28.8339 32.397 28.651 32.397 28.5596C32.2148 28.3767 32.2148 28.2852 32.2148 28.1937Z" fill="white"/>
</svg>
