<svg width="44" height="44" viewBox="0 0 44 44" fill="none" xmlns="http://www.w3.org/2000/svg">
<path d="M44.0049 22.0024C44.0049 34.154 34.154 44.0049 22.0024 44.0049C9.85082 44.0049 0 34.154 0 22.0024C0 9.85082 9.85082 0 22.0024 0C34.154 0 44.0049 9.85082 44.0049 22.0024Z" fill="#A38864"/>
<path d="M24.6728 23.1634H23.1283C20.7014 23.1634 18.3479 21.4738 18.3479 17.249C18.3479 12.8488 20.5545 11.0533 22.7972 11.0533H24.6728V23.1634ZM27.0997 8.80022H22.9079C18.7886 8.80022 15.2961 11.7931 15.2961 17.6015C15.2961 21.0866 16.9875 23.6565 20.0031 24.9232L14.3765 34.6396C14.1923 34.9565 14.3765 35.2031 14.6703 35.2031H17.2813C17.5017 35.2031 17.6496 35.1328 17.7231 34.9565L22.8345 25.4164H24.6728V34.9565C24.6728 35.0625 24.7835 35.2031 24.9304 35.2031H27.2104C27.4307 35.2031 27.5042 35.0972 27.5042 34.9219V9.15181C27.5042 8.90618 27.3573 8.80022 27.0997 8.80022Z" fill="white"/>
</svg>
